# xmcd CD database file generated by OrangeCD 6.4
#
# Track frame offsets:
#	150
#	11433
#	23068
#	34038
#	45000
#	56125
#	71281
#	81987
#	94088
#	107629
#	123215
#	139490
#	154148
#	179345
#	194649
#	214081
#	231228
#
# Disc length: 3315 seconds
#
# Revision: 2
# Processed by: cddbd v1.5.2PL0 Copyright (c) Steve Scherf et al.
# Submitted via: OrangeCD 6.4
#
DISCID=e20cf111
DTITLE=Etta James - The Very Best of Etta James: The Chess Singles
DYEAR=2005
DGENRE=Soul Blues
TTITLE0=Security
TTITLE1=I'm Gonna Take What He's Got
TTITLE2=I Worship The Ground You Walk On
TTITLE3=You Got It
TTITLE4=I Got You Babe
TTITLE5=Almost Persuaded
TTITLE6=Miss Pitiful
TTITLE7=Tighten Up Your Own Thing
TTITLE8=Loser's Weepers Part One
TTITLE9=I Found A Love
TTITLE10=Nothing From Nothing Leaves Nothing
TTITLE11=W.O.M.A.N.
TTITLE12=All The Way Down
TTITLE13=You Can Leave Your Hat On
TTITLE14=Out On The Street Again
TTITLE15=Lovin' Arms
TTITLE16=Never My Love
EXTD=
EXTT0=
EXTT1=
EXTT2=
EXTT3=
EXTT4=
EXTT5=
EXTT6=
EXTT7=
EXTT8=
EXTT9=
EXTT10=
EXTT11=
EXTT12=
EXTT13=
EXTT14=
EXTT15=
EXTT16=
PLAYORDER=
